<?xml version="1.0" encoding="UTF-8" standalone="no"?>
<!DOCTYPE svg PUBLIC "-//W3C//DTD SVG 1.1//EN" "http://www.w3.org/Graphics/SVG/1.1/DTD/svg11.dtd">
<svg width="267.43" height="205.71" viewBox="0.00 0.00 1300.00 1000.00" xmlns="http://www.w3.org/2000/svg" xmlns:xlink="http://www.w3.org/1999/xlink">
<g stroke-linecap="round" id="Hi,_i_am_sqkrr._2_2">
<path d="M417.50,422.50 C416.35,423.26 412.69,425.72 411.80,426.36 C408.64,428.71 408.87,431.52 409.50,432.50" fill="none" stroke="rgb(0, 0, 0)" stroke-width="22.32" stroke-opacity="1.00" stroke-linejoin="round"/>
<path d="M148.50,423.50 C145.47,424.23 136.15,424.71 135.57,424.75 C133.57,424.91 131.24,426.20 129.30,428.09 C127.07,430.27 125.38,430.97 122.72,430.75 C120.73,430.54 119.66,430.46 119.50,430.50 C118.78,430.67 118.23,431.65 117.50,431.50 C117.43,431.48 113.37,427.66 111.50,426.50 C108.05,424.34 100.41,424.41 99.50,424.50" fill="none" stroke="rgb(0, 0, 0)" stroke-width="22.32" stroke-opacity="1.00" stroke-linejoin="round"/>
<path d="M181.50,423.50 C186.76,423.96 191.13,424.47 193.50,425.50 C196.90,427.02 201.12,431.48 201.50,431.50 C202.25,431.52 202.78,430.68 203.50,430.50 C203.90,430.39 208.83,430.81 209.50,430.50 C210.17,430.20 211.87,427.36 213.50,426.50 C215.07,425.67 230.19,423.67 231.50,423.50" fill="none" stroke="rgb(0, 0, 0)" stroke-width="22.32" stroke-opacity="1.00" stroke-linejoin="round"/>
<path d="M965.50,507.50 C965.54,492.09 965.60,446.36 965.50,445.50 C965.00,443.50 964.43,440.90 964.40,434.67 C964.44,430.41 964.49,424.83 964.50,423.50" fill="none" stroke="rgb(0, 0, 0)" stroke-width="22.32" stroke-opacity="1.00" stroke-linejoin="round"/>
<path d="M126.50,430.50 C126.44,446.04 126.44,470.37 126.50,470.50 C126.70,470.93 127.50,471.03 127.50,471.50 C127.50,472.25 126.39,473.86 126.45,476.05 C126.46,492.55 126.49,511.78 126.50,514.50" fill="none" stroke="rgb(0, 0, 0)" stroke-width="22.32" stroke-opacity="1.00" stroke-linejoin="round"/>
<path d="M209.50,430.50 C209.50,430.50 209.50,514.50 209.50,514.50" fill="none" stroke="rgb(0, 0, 0)" stroke-width="22.32" stroke-opacity="1.00" stroke-linejoin="round"/>
<path d="M117.50,514.50 C117.50,514.50 117.50,431.50 117.50,431.50" fill="none" stroke="rgb(0, 0, 0)" stroke-width="22.32" stroke-opacity="1.00" stroke-linejoin="round"/>
<path d="M201.50,431.50 C201.55,447.63 201.52,469.44 201.50,469.50 C201.30,470.22 200.39,471.90 200.69,473.32 C201.64,477.86 201.53,510.17 201.50,514.50" fill="none" stroke="rgb(0, 0, 0)" stroke-width="22.32" stroke-opacity="1.00" stroke-linejoin="round"/>
<path d="M271.50,433.50 C269.76,434.95 269.24,436.07 269.83,437.67 C270.05,438.28 270.28,438.89 270.50,439.50" fill="none" stroke="rgb(0, 0, 0)" stroke-width="22.32" stroke-opacity="1.00" stroke-linejoin="round"/>
<path d="M419.50,450.50 C417.95,454.00 413.48,464.25 413.50,464.50 C413.55,464.97 414.27,465.09 414.50,465.50 C414.51,465.51 413.47,471.85 413.40,477.50 C413.42,486.05 413.47,499.05 413.50,503.50" fill="none" stroke="rgb(0, 0, 0)" stroke-width="22.32" stroke-opacity="1.00" stroke-linejoin="round"/>
<path d="M832.50,480.50 C831.41,478.64 829.90,475.78 829.50,474.50 C829.18,473.47 828.72,469.21 828.50,468.50 C828.05,467.07 825.82,463.81 824.50,462.50 C822.95,461.03 817.24,458.64 813.73,457.73 C808.66,456.47 802.84,455.38 800.50,455.50 C798.07,455.67 794.60,456.70 793.09,457.84 C791.65,458.98 789.76,461.54 789.08,463.20 C788.43,464.90 787.66,468.01 787.46,469.75 C787.30,471.42 787.87,474.17 788.70,475.42 C789.95,477.20 796.64,480.54 800.44,481.91 C803.90,483.12 811.08,485.68 814.11,486.92 C817.70,488.41 823.04,491.60 824.86,493.97 C826.70,496.44 827.96,501.41 827.77,504.96 C827.65,506.50 827.11,509.85 826.63,510.89 C825.85,512.52 823.62,514.11 821.69,514.52 C818.74,515.09 810.45,515.86 808.25,515.80 C803.83,515.66 788.68,512.10 786.61,511.17 C785.25,510.52 783.85,508.56 783.28,506.80 C782.72,504.93 781.71,498.77 781.50,497.50" fill="none" stroke="rgb(0, 0, 0)" stroke-width="22.32" stroke-opacity="1.00" stroke-linejoin="round"/>
<path d="M923.50,456.50 C923.59,458.81 922.14,463.71 919.92,468.91 C918.74,471.62 917.57,474.08 917.50,474.50 C917.49,474.54 917.51,540.86 917.50,543.50" fill="none" stroke="rgb(0, 0, 0)" stroke-width="22.32" stroke-opacity="1.00" stroke-linejoin="round"/>
<path d="M997.50,462.50 C1000.15,463.17 1005.03,464.40 1008.25,465.07 C1009.28,465.27 1010.04,466.39 1010.50,466.50 C1010.83,466.58 1029.35,463.95 1032.50,463.50" fill="none" stroke="rgb(0, 0, 0)" stroke-width="22.32" stroke-opacity="1.00" stroke-linejoin="round"/>
<path d="M556.50,463.50 C556.07,465.43 554.57,470.69 553.50,471.50 C552.45,472.09 550.09,473.67 549.50,475.00 C548.95,476.30 547.65,504.15 547.50,504.50 C547.21,505.19 546.33,505.78 546.50,506.50 C546.80,507.67 548.02,508.40 548.50,509.50 C548.78,510.11 548.34,510.85 548.50,511.50 C548.63,511.98 550.74,514.56 551.50,515.50" fill="none" stroke="rgb(0, 0, 0)" stroke-width="22.32" stroke-opacity="1.00" stroke-linejoin="round"/>
<path d="M413.50,464.50 C412.53,465.13 409.38,467.15 408.64,467.58 C407.08,468.48 406.07,468.51 405.25,467.72 C404.15,466.67 402.87,466.33 400.56,466.64 C397.35,467.09 390.86,468.26 389.50,468.50" fill="none" stroke="rgb(0, 0, 0)" stroke-width="22.32" stroke-opacity="1.00" stroke-linejoin="round"/>
<path d="M599.50,472.50 C601.39,471.02 603.91,469.32 604.50,469.50 C604.81,469.59 605.90,473.18 606.50,473.50 C607.18,473.85 616.95,469.69 620.50,468.50 C627.98,466.02 638.65,464.28 640.50,464.50 C643.06,464.86 644.83,465.87 646.34,467.87 C648.02,470.13 654.98,477.67 655.50,478.50 C655.91,479.19 655.47,482.75 655.40,488.22 C655.42,496.83 655.47,509.97 655.50,514.50" fill="none" stroke="rgb(0, 0, 0)" stroke-width="22.32" stroke-opacity="1.00" stroke-linejoin="round"/>
<path d="M655.50,478.50 C658.20,476.77 664.86,472.51 668.46,470.29 C670.27,469.19 673.85,467.21 675.34,466.53 C677.68,465.48 684.08,465.56 689.12,466.35 C690.40,466.56 695.27,467.32 695.50,467.50 C696.08,467.98 696.80,470.02 697.99,470.69 C699.95,471.91 702.01,473.57 702.79,475.16 C705.18,480.09 705.71,495.12 705.56,509.83 C705.54,511.41 705.51,514.25 705.50,515.50" fill="none" stroke="rgb(0, 0, 0)" stroke-width="22.32" stroke-opacity="1.00" stroke-linejoin="round"/>
<path d="M585.50,467.50 C586.61,467.37 589.73,467.01 590.58,466.98 C593.70,466.95 597.95,470.69 599.50,472.50" fill="none" stroke="rgb(0, 0, 0)" stroke-width="22.32" stroke-opacity="1.00" stroke-linejoin="round"/>
<path d="M1010.50,466.50 C1008.81,470.99 1006.76,474.94 1003.99,476.36 C1002.51,476.99 999.70,478.31 998.50,479.50 C997.31,480.70 995.40,484.40 994.87,485.48 C994.08,487.04 992.93,487.93 991.79,487.61 C990.68,487.28 987.80,486.33 985.75,486.30 C981.83,486.25 975.31,486.42 972.50,486.50" fill="none" stroke="rgb(0, 0, 0)" stroke-width="22.32" stroke-opacity="1.00" stroke-linejoin="round"/>
<path d="M1070.50,478.50 C1073.01,476.91 1078.65,473.36 1081.27,471.95 C1084.11,470.44 1089.26,468.44 1092.11,467.79 C1093.58,467.48 1096.03,467.58 1097.07,468.05 C1098.84,468.91 1098.69,472.17 1098.50,473.50" fill="none" stroke="rgb(0, 0, 0)" stroke-width="22.32" stroke-opacity="1.00" stroke-linejoin="round"/>
<path d="M1141.50,478.50 C1144.01,476.91 1149.65,473.36 1152.27,471.95 C1155.11,470.44 1160.26,468.44 1163.11,467.79 C1164.58,467.48 1167.03,467.58 1168.07,468.05 C1169.84,468.91 1169.69,472.17 1169.50,473.50" fill="none" stroke="rgb(0, 0, 0)" stroke-width="22.32" stroke-opacity="1.00" stroke-linejoin="round"/>
<path d="M406.50,468.50 C406.46,475.18 406.45,497.73 406.45,497.93 C406.41,500.04 406.65,501.21 407.50,503.50" fill="none" stroke="rgb(0, 0, 0)" stroke-width="22.32" stroke-opacity="1.00" stroke-linejoin="round"/>
<path d="M551.50,474.50 C550.04,474.32 548.25,475.47 547.50,475.50 C547.02,475.51 543.50,472.81 542.41,472.20 C539.38,470.51 532.15,469.17 529.13,469.07 C525.49,468.99 518.56,470.23 514.85,471.89 C511.04,473.66 505.38,477.82 503.01,480.94 C501.84,482.54 501.08,484.72 500.84,486.93 C500.59,489.28 500.27,490.08 499.19,490.91 C497.85,491.94 497.16,493.05 496.33,495.63 C495.63,497.91 495.27,499.70 495.50,500.50 C496.36,503.21 505.07,519.64 506.50,521.50 C508.53,524.08 510.54,525.61 512.61,526.18 C514.17,526.58 515.80,525.75 516.50,525.50 C516.65,525.45 519.30,525.68 520.50,525.50 C521.51,525.35 528.25,522.78 528.50,522.50 C528.99,521.94 530.01,519.87 532.59,517.97 C534.35,516.67 535.32,515.85 535.50,515.50 C535.82,514.92 535.25,514.12 535.50,513.50 C535.61,513.22 543.71,508.20 546.50,506.50" fill="none" stroke="rgb(0, 0, 0)" stroke-width="22.32" stroke-opacity="1.00" stroke-linejoin="round"/>
<path d="M648.50,470.50 C648.50,470.50 649.50,514.50 649.50,514.50" fill="none" stroke="rgb(0, 0, 0)" stroke-width="22.32" stroke-opacity="1.00" stroke-linejoin="round"/>
<path d="M1044.50,471.50 C1045.46,471.20 1048.03,470.39 1048.50,470.50 C1049.23,470.66 1049.77,471.37 1050.50,471.50 C1050.98,471.59 1055.30,470.63 1056.50,470.50 C1057.79,470.37 1059.92,470.86 1060.50,471.50 C1061.05,472.10 1062.74,474.70 1063.50,474.50 C1063.63,474.47 1067.70,471.51 1068.50,471.50 C1069.68,471.56 1070.50,480.37 1070.56,485.54 C1070.57,493.66 1070.54,508.14 1070.50,514.50" fill="none" stroke="rgb(0, 0, 0)" stroke-width="22.32" stroke-opacity="1.00" stroke-linejoin="round"/>
<path d="M1115.50,471.50 C1116.46,471.20 1119.03,470.39 1119.50,470.50 C1120.23,470.66 1120.77,471.37 1121.50,471.50 C1121.98,471.59 1126.30,470.63 1127.50,470.50 C1128.79,470.37 1130.92,470.86 1131.50,471.50 C1132.05,472.10 1133.74,474.70 1134.50,474.50 C1134.63,474.47 1138.70,471.51 1139.50,471.50 C1140.68,471.56 1141.50,480.37 1141.56,485.54 C1141.57,493.66 1141.54,508.14 1141.50,514.50" fill="none" stroke="rgb(0, 0, 0)" stroke-width="22.32" stroke-opacity="1.00" stroke-linejoin="round"/>
<path d="M127.50,471.50 C127.50,471.50 200.50,471.50 200.50,471.50" fill="none" stroke="rgb(0, 0, 0)" stroke-width="22.32" stroke-opacity="1.00" stroke-linejoin="round"/>
<path d="M247.50,471.50 C248.48,472.18 249.15,472.51 249.50,472.50 C250.25,472.49 250.77,471.66 251.50,471.50 C252.02,471.38 255.17,472.59 255.50,472.50 C255.96,472.39 256.92,471.29 258.21,471.61 C260.62,472.24 264.14,475.60 264.50,475.50 C265.41,475.24 267.17,472.90 268.53,472.60 C269.76,472.34 271.13,472.69 271.31,473.56 C271.54,474.84 271.51,509.84 271.50,514.50" fill="none" stroke="rgb(0, 0, 0)" stroke-width="22.32" stroke-opacity="1.00" stroke-linejoin="round"/>
<path d="M698.50,471.50 C698.50,471.50 699.50,515.50 699.50,515.50" fill="none" stroke="rgb(0, 0, 0)" stroke-width="22.32" stroke-opacity="1.00" stroke-linejoin="round"/>
<path d="M916.50,475.50 C914.52,475.84 910.97,476.56 910.50,476.50 C909.76,476.40 908.10,475.31 906.06,474.77 C901.13,473.43 892.86,471.43 892.50,471.50 C891.77,471.66 891.25,472.51 890.50,472.50 C890.03,472.51 889.94,471.67 889.50,471.50 C889.31,471.44 879.68,473.70 876.81,474.88 C873.34,476.36 868.18,480.27 865.57,483.31 C860.39,489.46 855.38,499.07 855.50,500.50 C855.70,502.45 858.16,505.60 858.50,506.50 C858.75,507.12 858.32,507.86 858.50,508.50 C858.63,508.96 860.61,510.09 861.50,511.50 C861.99,512.28 865.82,522.59 866.50,523.50 C867.64,525.01 870.11,526.07 870.50,526.50 C871.01,527.04 871.71,528.80 873.08,529.68 C874.94,530.84 877.11,531.47 879.50,531.50 C881.74,531.50 888.43,529.89 893.14,528.40 C895.92,527.49 900.00,523.00 902.03,521.79 C904.51,520.32 910.34,517.14 911.50,516.50" fill="none" stroke="rgb(0, 0, 0)" stroke-width="22.32" stroke-opacity="1.00" stroke-linejoin="round"/>
<path d="M599.50,472.50 C599.50,472.50 599.50,513.50 599.50,513.50" fill="none" stroke="rgb(0, 0, 0)" stroke-width="22.32" stroke-opacity="1.00" stroke-linejoin="round"/>
<path d="M890.50,475.50 C890.50,475.50 890.50,472.50 890.50,472.50" fill="none" stroke="rgb(0, 0, 0)" stroke-width="22.32" stroke-opacity="1.00" stroke-linejoin="round"/>
<path d="M551.50,474.50 C552.35,475.93 552.59,476.86 552.54,479.04 C552.54,479.36 552.52,517.07 552.50,521.50" fill="none" stroke="rgb(0, 0, 0)" stroke-width="22.32" stroke-opacity="1.00" stroke-linejoin="round"/>
<path d="M605.50,513.50 C605.47,506.59 605.43,490.53 605.42,481.38 C605.49,475.53 605.65,474.92 606.50,473.50" fill="none" stroke="rgb(0, 0, 0)" stroke-width="22.32" stroke-opacity="1.00" stroke-linejoin="round"/>
<path d="M1063.50,474.50 C1063.50,474.50 1063.50,514.50 1063.50,514.50" fill="none" stroke="rgb(0, 0, 0)" stroke-width="22.32" stroke-opacity="1.00" stroke-linejoin="round"/>
<path d="M1134.50,474.50 C1134.50,474.50 1134.50,514.50 1134.50,514.50" fill="none" stroke="rgb(0, 0, 0)" stroke-width="22.32" stroke-opacity="1.00" stroke-linejoin="round"/>
<path d="M264.50,514.50 C264.50,514.50 264.50,475.50 264.50,475.50" fill="none" stroke="rgb(0, 0, 0)" stroke-width="22.32" stroke-opacity="1.00" stroke-linejoin="round"/>
<path d="M910.50,476.50 C911.89,479.81 912.57,482.98 912.52,487.35 C912.45,492.64 911.43,516.23 911.50,516.50 C911.70,517.22 912.60,518.84 912.55,520.90 C912.53,521.96 912.49,532.37 912.44,536.67 C912.46,542.33 912.65,543.06 913.50,544.50" fill="none" stroke="rgb(0, 0, 0)" stroke-width="22.32" stroke-opacity="1.00" stroke-linejoin="round"/>
<path d="M861.50,488.50 C861.67,491.64 862.08,499.42 862.32,504.08 C862.56,510.29 862.36,510.94 861.50,511.50" fill="none" stroke="rgb(0, 0, 0)" stroke-width="22.32" stroke-opacity="1.00" stroke-linejoin="round"/>
<path d="M1013.50,512.50 C1012.33,511.52 1011.67,510.85 1011.50,510.50 C1011.21,509.90 1011.69,509.14 1011.50,508.50 C1011.37,508.11 997.14,491.68 993.50,487.50" fill="none" stroke="rgb(0, 0, 0)" stroke-width="22.32" stroke-opacity="1.00" stroke-linejoin="round"/>
<path d="M500.50,512.50 C500.67,509.37 501.08,501.58 501.32,496.93 C501.56,490.71 501.36,490.07 500.50,489.50" fill="none" stroke="rgb(0, 0, 0)" stroke-width="22.32" stroke-opacity="1.00" stroke-linejoin="round"/>
<path d="M386.50,518.50 C390.66,515.71 394.02,513.58 396.65,513.17 C398.34,512.90 403.81,507.01 405.46,505.27 C406.87,503.81 408.65,502.95 409.94,503.06 C410.47,503.14 410.96,503.56 411.50,503.50 C412.19,503.46 412.82,502.88 413.50,503.00 C413.87,503.07 415.99,506.03 416.81,506.79 C419.11,508.91 424.01,509.48 429.50,509.50" fill="none" stroke="rgb(0, 0, 0)" stroke-width="22.32" stroke-opacity="1.00" stroke-linejoin="round"/>
<path d="M944.50,516.50 C945.41,515.37 947.16,513.95 948.50,513.50 C949.42,513.20 952.39,513.46 953.83,513.61 C955.36,513.73 958.27,513.12 959.95,512.30 C961.77,511.39 964.80,507.49 965.50,507.50 C966.41,507.51 969.76,508.41 970.50,507.50 C971.03,506.81 971.31,496.10 971.37,491.51 C971.36,488.94 972.50,487.25 972.50,486.50 C972.50,485.76 971.39,484.17 971.45,481.96 C971.46,481.61 971.04,423.03 970.50,422.50 C970.13,422.16 965.18,423.51 964.50,423.50 C962.79,423.50 957.77,418.51 957.50,418.50 C957.03,418.49 956.94,419.34 956.50,419.50 C956.14,419.65 952.95,418.42 952.50,418.50 C951.77,418.62 951.23,419.34 950.50,419.50 C950.00,419.62 947.45,418.80 946.50,418.50" fill="none" stroke="rgb(0, 0, 0)" stroke-width="22.32" stroke-opacity="1.00" stroke-linejoin="round"/>
<path d="M970.50,507.50 C973.30,510.37 978.09,515.31 978.50,515.50 C979.10,515.78 981.44,515.52 983.31,516.14 C986.74,517.27 988.80,519.53 989.50,520.50" fill="none" stroke="rgb(0, 0, 0)" stroke-width="22.32" stroke-opacity="1.00" stroke-linejoin="round"/>
<path d="M571.50,512.50 C568.66,514.04 560.70,518.27 559.50,518.50 C557.99,518.78 556.03,517.65 555.50,517.50 C555.22,517.42 554.55,517.42 553.50,517.50" fill="none" stroke="rgb(0, 0, 0)" stroke-width="22.32" stroke-opacity="1.00" stroke-linejoin="round"/>
<path d="M581.50,519.50 C584.89,519.16 593.91,518.29 594.11,518.25 C594.91,518.08 596.64,516.18 597.22,515.53 C598.57,514.02 600.73,512.84 602.62,512.67 C604.43,512.55 606.25,513.34 607.09,514.53 C608.38,516.37 609.44,517.53 610.81,518.22 C613.65,519.61 619.30,520.16 624.50,520.50" fill="none" stroke="rgb(0, 0, 0)" stroke-width="22.32" stroke-opacity="1.00" stroke-linejoin="round"/>
<path d="M1039.50,520.50 C1036.19,519.88 1028.04,518.34 1023.83,517.41 C1021.36,516.87 1017.59,515.00 1016.10,514.35 C1014.53,513.69 1012.52,514.32 1010.85,515.73 C1009.24,517.12 1005.91,520.44 1005.50,520.50 C1004.76,520.59 1002.75,519.22 1000.45,519.32 C999.97,519.33 998.99,519.39 997.50,519.50" fill="none" stroke="rgb(0, 0, 0)" stroke-width="22.32" stroke-opacity="1.00" stroke-linejoin="round"/>
<path d="M92.50,520.50 C102.11,519.65 110.09,519.19 110.44,519.15 C111.76,518.98 112.68,518.38 114.79,516.49 C116.49,514.99 118.43,514.06 120.39,513.92 C122.17,513.84 125.88,514.08 126.50,514.50 C127.17,514.96 129.15,517.78 130.50,518.50 C131.97,519.28 145.33,520.40 146.50,520.50" fill="none" stroke="rgb(0, 0, 0)" stroke-width="22.32" stroke-opacity="1.00" stroke-linejoin="round"/>
<path d="M180.50,520.50 C190.35,519.84 197.22,518.72 198.50,517.50 C198.99,517.03 200.61,514.95 201.50,514.50 C202.16,514.18 205.66,513.81 206.78,513.87 C209.80,514.13 214.59,518.64 217.50,519.50 C220.59,520.38 233.31,520.49 234.50,520.50" fill="none" stroke="rgb(0, 0, 0)" stroke-width="22.32" stroke-opacity="1.00" stroke-linejoin="round"/>
<path d="M245.50,520.50 C248.78,520.22 256.62,519.48 259.21,518.67 C260.69,518.19 261.74,517.29 262.82,515.91 C263.66,514.84 265.78,514.01 268.01,513.96 C269.64,513.96 270.80,514.14 271.50,514.50 C272.21,514.88 274.09,517.69 275.50,518.50 C276.63,519.15 284.62,520.17 287.50,520.50" fill="none" stroke="rgb(0, 0, 0)" stroke-width="22.32" stroke-opacity="1.00" stroke-linejoin="round"/>
<path d="M633.50,520.50 C636.37,520.17 644.32,519.14 645.50,518.50 C647.02,517.67 648.84,514.95 649.50,514.50 C650.46,513.86 654.63,513.54 655.50,514.00 C656.04,514.30 657.27,516.77 658.50,517.50 C659.61,518.15 669.08,519.91 672.50,520.50" fill="none" stroke="rgb(0, 0, 0)" stroke-width="22.32" stroke-opacity="1.00" stroke-linejoin="round"/>
<path d="M1045.50,521.50 C1050.99,520.94 1056.06,520.27 1057.50,519.50 C1059.47,518.44 1062.59,515.08 1063.50,514.50 C1064.24,514.04 1067.36,514.52 1067.50,514.50 C1068.51,514.41 1069.53,513.70 1070.50,514.00 C1071.19,514.22 1071.01,515.37 1071.43,515.97 C1072.35,517.29 1075.21,518.90 1077.20,519.34 C1081.34,520.18 1087.68,521.10 1090.50,521.50" fill="none" stroke="rgb(0, 0, 0)" stroke-width="22.32" stroke-opacity="1.00" stroke-linejoin="round"/>
<path d="M1116.50,521.50 C1121.99,520.94 1127.06,520.27 1128.50,519.50 C1130.47,518.44 1133.59,515.08 1134.50,514.50 C1135.24,514.04 1138.36,514.52 1138.50,514.50 C1139.51,514.41 1140.53,513.70 1141.50,514.00 C1142.19,514.22 1142.01,515.37 1142.43,515.97 C1143.35,517.29 1146.21,518.90 1148.20,519.34 C1152.34,520.18 1158.68,521.10 1161.50,521.50" fill="none" stroke="rgb(0, 0, 0)" stroke-width="22.32" stroke-opacity="1.00" stroke-linejoin="round"/>
<path d="M1204.50,514.50 C1204.50,514.50 1204.50,515.50 1204.50,515.50" fill="none" stroke="rgb(0, 0, 0)" stroke-width="22.32" stroke-opacity="1.00" stroke-linejoin="round"/>
<path d="M680.50,520.50 C683.05,521.25 688.07,521.75 690.94,521.35 C692.49,521.11 694.78,519.73 696.69,517.98 C699.19,515.69 700.83,514.70 702.53,514.67 C704.27,514.70 707.20,517.18 708.07,517.99 C709.89,519.70 712.71,521.10 714.89,521.30 C715.95,521.39 720.19,521.48 721.50,521.50" fill="none" stroke="rgb(0, 0, 0)" stroke-width="22.32" stroke-opacity="1.00" stroke-linejoin="round"/>
<path d="M303.50,551.50 C313.71,548.27 319.73,545.61 321.50,543.50 C323.56,540.94 325.02,535.44 324.97,532.16 C324.86,529.48 321.26,523.86 320.50,523.50 C319.89,523.23 318.17,523.44 316.86,522.26 C314.63,520.32 308.89,518.39 305.50,518.50" fill="none" stroke="rgb(0, 0, 0)" stroke-width="22.32" stroke-opacity="1.00" stroke-linejoin="round"/>
<path d="M812.50,519.50 C812.50,519.50 812.50,516.50 812.50,516.50" fill="none" stroke="rgb(0, 0, 0)" stroke-width="22.32" stroke-opacity="1.00" stroke-linejoin="round"/>
<path d="M913.50,544.50 C914.72,543.81 916.69,543.13 917.50,543.50 C918.41,543.91 921.49,546.85 923.50,547.50 C925.00,547.98 930.52,547.35 936.50,546.50" fill="none" stroke="rgb(0, 0, 0)" stroke-width="22.32" stroke-opacity="1.00" stroke-linejoin="round"/>
<path d="M887.50,563.50 C887.91,562.33 888.25,561.66 888.50,561.50 C889.07,561.15 889.89,561.77 890.50,561.50 C891.37,561.13 892.94,559.15 894.73,558.66 C899.10,557.40 904.63,554.80 907.39,552.08 C908.97,550.48 912.60,545.67 913.50,544.50" fill="none" stroke="rgb(0, 0, 0)" stroke-width="22.32" stroke-opacity="1.00" stroke-linejoin="round"/>
</g>
</svg>
